<svg width="15" height="15" viewBox="0 0 15 15" fill="none" xmlns="http://www.w3.org/2000/svg">
<path d="M12.6562 7.37637C13.1146 7.37637 13.5104 7.54304 13.8438 7.87637C14.1771 8.18887 14.3438 8.57429 14.3438 9.03262C14.3438 9.49096 14.1771 9.88679 13.8438 10.2201C13.5104 10.5326 13.1146 10.6889 12.6562 10.6889H11.6562V13.3764C11.6562 13.7305 11.5208 14.043 11.25 14.3139C11 14.5639 10.6979 14.6889 10.3438 14.6889H7.8125V13.6889C7.8125 13.1889 7.63542 12.7722 7.28125 12.4389C6.92708 12.0847 6.5 11.9076 6 11.9076C5.5 11.9076 5.07292 12.0847 4.71875 12.4389C4.36458 12.7722 4.1875 13.1889 4.1875 13.6889V14.6889H1.65625C1.30208 14.6889 0.989583 14.5639 0.71875 14.3139C0.46875 14.043 0.34375 13.7305 0.34375 13.3764V10.8451H1.34375C1.84375 10.8451 2.26042 10.668 2.59375 10.3139C2.94792 9.95971 3.125 9.53262 3.125 9.03262C3.125 8.53262 2.94792 8.10554 2.59375 7.75137C2.26042 7.39721 1.84375 7.22012 1.34375 7.22012H0.34375V4.68887C0.34375 4.33471 0.46875 4.03262 0.71875 3.78262C0.989583 3.51179 1.30208 3.37637 1.65625 3.37637H4.34375V2.37637C4.34375 1.91804 4.5 1.52221 4.8125 1.18887C5.14583 0.85554 5.54167 0.688873 6 0.688873C6.45833 0.688873 6.84375 0.85554 7.15625 1.18887C7.48958 1.52221 7.65625 1.91804 7.65625 2.37637V3.37637H10.3438C10.6979 3.37637 11 3.51179 11.25 3.78262C11.5208 4.03262 11.6562 4.33471 11.6562 4.68887V7.37637H12.6562Z" fill="black"/>
</svg>
