<svg width="16" height="12" viewBox="0 0 16 12" fill="none" xmlns="http://www.w3.org/2000/svg">
<path d="M15.2999 6.40001C15.2474 6.43941 15.1876 6.46807 15.124 6.48437C15.0604 6.50066 14.9942 6.50427 14.9292 6.49499C14.8642 6.4857 14.8017 6.4637 14.7452 6.43025C14.6887 6.39679 14.6393 6.35254 14.5999 6.30001C14.2986 5.89492 13.9063 5.56625 13.4547 5.34046C13.0031 5.11466 12.5048 4.99805 11.9999 5.00001C11.8673 5.00001 11.7402 4.94733 11.6464 4.85356C11.5526 4.7598 11.4999 4.63262 11.4999 4.50001C11.4999 4.3674 11.5526 4.24022 11.6464 4.14646C11.7402 4.05269 11.8673 4.00001 11.9999 4.00001C12.2805 3.99999 12.5554 3.92128 12.7935 3.77285C13.0315 3.62441 13.2232 3.41219 13.3467 3.16029C13.4702 2.90838 13.5205 2.6269 13.4921 2.3478C13.4636 2.0687 13.3574 1.80318 13.1856 1.5814C13.0138 1.35962 12.7833 1.19046 12.5201 1.09315C12.257 0.99583 11.9719 0.974256 11.6971 1.03087C11.4223 1.08749 11.1689 1.22003 10.9657 1.41344C10.7625 1.60685 10.6176 1.85337 10.5474 2.12501C10.531 2.18862 10.5022 2.24837 10.4627 2.30086C10.4232 2.35334 10.3738 2.39753 10.3172 2.4309C10.2606 2.46427 10.198 2.48617 10.1329 2.49535C10.0679 2.50453 10.0017 2.5008 9.93807 2.48438C9.87446 2.46797 9.81471 2.43919 9.76222 2.39968C9.70974 2.36017 9.66555 2.31071 9.63218 2.25413C9.59881 2.19754 9.57691 2.13494 9.56773 2.06989C9.55855 2.00484 9.56228 1.93862 9.5787 1.87501C9.67604 1.49833 9.85996 1.14957 10.1158 0.856479C10.3717 0.563388 10.6924 0.334055 11.0525 0.186729C11.4126 0.0394023 11.8021 -0.0218514 12.19 0.00784139C12.5779 0.0375342 12.9535 0.157354 13.287 0.357767C13.6205 0.55818 13.9025 0.833655 14.1108 1.16227C14.3191 1.49089 14.4478 1.86358 14.4867 2.25068C14.5255 2.63779 14.4735 3.02863 14.3348 3.3921C14.196 3.75558 13.9744 4.08165 13.6874 4.34439C14.3673 4.63876 14.9584 5.10589 15.4018 5.69939C15.4412 5.75205 15.4698 5.81196 15.486 5.8757C15.5022 5.93944 15.5057 6.00575 15.4962 6.07083C15.4868 6.13592 15.4646 6.19849 15.4309 6.25498C15.3972 6.31146 15.3527 6.36075 15.2999 6.40001ZM11.9324 10.25C11.9674 10.3069 11.9905 10.3703 12.0005 10.4363C12.0106 10.5023 12.0073 10.5696 11.9909 10.6344C11.9745 10.6991 11.9452 10.7598 11.905 10.8131C11.8647 10.8663 11.8141 10.911 11.7563 10.9444C11.6985 10.9778 11.6346 10.9992 11.5683 11.0075C11.5021 11.0158 11.4348 11.0108 11.3706 10.9927C11.3063 10.9745 11.2463 10.9437 11.1941 10.9021C11.142 10.8604 11.0987 10.8087 11.0668 10.75C10.7518 10.2168 10.3033 9.77496 9.76538 9.46801C9.22752 9.16106 8.61892 8.99963 7.99963 8.99963C7.38034 8.99963 6.77175 9.16106 6.23388 9.46801C5.69602 9.77496 5.24746 10.2168 4.93245 10.75C4.90119 10.8098 4.85817 10.8626 4.80597 10.9053C4.75377 10.948 4.69348 10.9797 4.62871 10.9984C4.56395 11.0172 4.49605 11.0227 4.42911 11.0146C4.36217 11.0065 4.29756 10.9849 4.23918 10.9511C4.1808 10.9174 4.12985 10.8722 4.08939 10.8182C4.04893 10.7643 4.0198 10.7027 4.00376 10.6372C3.98772 10.5717 3.98509 10.5036 3.99603 10.4371C4.00698 10.3706 4.03127 10.3069 4.06745 10.25C4.55219 9.41712 5.29132 8.76168 6.1762 8.38001C5.67828 7.99878 5.31234 7.47111 5.12982 6.87115C4.9473 6.2712 4.95738 5.62913 5.15864 5.0352C5.3599 4.44127 5.74222 3.92534 6.25186 3.55993C6.76151 3.19452 7.37284 2.99801 7.99995 2.99801C8.62705 2.99801 9.23839 3.19452 9.74803 3.55993C10.2577 3.92534 10.64 4.44127 10.8412 5.0352C11.0425 5.62913 11.0526 6.2712 10.8701 6.87115C10.6876 7.47111 10.3216 7.99878 9.8237 8.38001C10.7086 8.76168 11.4477 9.41712 11.9324 10.25ZM7.99995 8.00001C8.39551 8.00001 8.78219 7.88271 9.11109 7.66295C9.43998 7.44319 9.69633 7.13083 9.8477 6.76538C9.99908 6.39992 10.0387 5.99779 9.96152 5.60983C9.88435 5.22187 9.69386 4.8655 9.41416 4.5858C9.13445 4.30609 8.77809 4.11561 8.39013 4.03844C8.00216 3.96127 7.60003 4.00088 7.23458 4.15225C6.86913 4.30363 6.55677 4.55997 6.33701 4.88887C6.11724 5.21777 5.99995 5.60445 5.99995 6.00001C5.99995 6.53044 6.21066 7.03915 6.58573 7.41422C6.9608 7.7893 7.46951 8.00001 7.99995 8.00001ZM4.49995 4.50001C4.49995 4.3674 4.44727 4.24022 4.3535 4.14646C4.25973 4.05269 4.13255 4.00001 3.99995 4.00001C3.7194 3.99999 3.44448 3.92128 3.20643 3.77285C2.96837 3.62441 2.77671 3.41219 2.65322 3.16029C2.52972 2.90838 2.47935 2.6269 2.50782 2.3478C2.53629 2.0687 2.64245 1.80318 2.81426 1.5814C2.98607 1.35962 3.21663 1.19046 3.47976 1.09315C3.74288 0.99583 4.02803 0.974256 4.3028 1.03087C4.57757 1.08749 4.83096 1.22003 5.03418 1.41344C5.2374 1.60685 5.38231 1.85337 5.45245 2.12501C5.4856 2.25347 5.56842 2.36351 5.6827 2.4309C5.79698 2.4983 5.93336 2.51754 6.06182 2.48438C6.19028 2.45123 6.30032 2.36841 6.36771 2.25413C6.43511 2.13985 6.45435 2.00347 6.4212 1.87501C6.32385 1.49833 6.13993 1.14957 5.88408 0.856479C5.62822 0.563388 5.3075 0.334055 4.94742 0.186729C4.58734 0.0394023 4.19784 -0.0218514 3.80992 0.00784139C3.422 0.0375342 3.04636 0.157354 2.7129 0.357767C2.37944 0.55818 2.09735 0.833655 1.88908 1.16227C1.68082 1.49089 1.55212 1.86358 1.51324 2.25068C1.47435 2.63779 1.52635 3.02863 1.6651 3.3921C1.80384 3.75558 2.0255 4.08165 2.31245 4.34439C1.63325 4.63904 1.04289 5.10615 0.599946 5.69939C0.520298 5.80547 0.486055 5.93885 0.50475 6.07019C0.523445 6.20152 0.593546 6.32005 0.699633 6.3997C0.80572 6.47935 0.939101 6.51359 1.07044 6.49489C1.20177 6.4762 1.3203 6.4061 1.39995 6.30001C1.70131 5.89492 2.09358 5.56625 2.54517 5.34046C2.99676 5.11466 3.49506 4.99805 3.99995 5.00001C4.13255 5.00001 4.25973 4.94733 4.3535 4.85356C4.44727 4.7598 4.49995 4.63262 4.49995 4.50001Z" fill="#1C1C1C"/>
</svg>
