<svg width="14" height="14" viewBox="0 0 14 14" fill="none" xmlns="http://www.w3.org/2000/svg">
<path d="M5.25009 6.27688C5.32612 6.23298 5.38925 6.16984 5.43313 6.09381C5.47702 6.01778 5.50011 5.93154 5.50009 5.84375V1.34375C5.49965 1.26403 5.48015 1.18558 5.44322 1.11493C5.40629 1.04428 5.35301 0.983489 5.28781 0.937619C5.22261 0.891748 5.14739 0.862132 5.06842 0.851239C4.98945 0.840346 4.90902 0.848493 4.83384 0.875C3.37445 1.39151 2.14717 2.41165 1.3726 3.75204C0.598039 5.09244 0.327003 6.66516 0.608217 8.1875C0.622793 8.26622 0.65606 8.34029 0.70522 8.40348C0.75438 8.46667 0.817996 8.51714 0.890717 8.55062C0.956251 8.58127 1.02775 8.59706 1.10009 8.59688C1.18785 8.59691 1.27407 8.57384 1.35009 8.53L5.25009 6.27688ZM4.50009 2.10125V5.555L1.50759 7.28187C1.50009 7.1875 1.50009 7.0925 1.50009 7C1.50098 5.98648 1.78152 4.99285 2.31084 4.12853C2.84015 3.2642 3.59771 2.5627 4.50009 2.10125ZM13.5001 7C13.5006 8.42695 13.0315 9.81442 12.1652 10.9483C11.2989 12.0822 10.0836 12.8996 8.70668 13.2742C7.32979 13.6489 5.86787 13.56 4.54648 13.0214C3.2251 12.4827 2.11768 11.5242 1.39509 10.2937C1.36141 10.2369 1.33932 10.174 1.33011 10.1085C1.3209 10.0431 1.32474 9.97652 1.34142 9.9126C1.3581 9.84867 1.38728 9.78868 1.42728 9.7361C1.46728 9.68352 1.51731 9.63938 1.57447 9.60625L6.50009 6.73938V1C6.50009 0.867392 6.55277 0.740215 6.64654 0.646447C6.74031 0.552678 6.86748 0.5 7.00009 0.5C8.13439 0.500579 9.2488 0.797834 10.2327 1.36225C11.2166 1.92667 12.0358 2.73863 12.6088 3.7175C12.6157 3.7275 12.622 3.7375 12.6282 3.74813C12.6345 3.75875 12.6407 3.77125 12.6463 3.7825C13.2072 4.76198 13.5015 5.87133 13.5001 7Z" fill="black"/>
</svg>
