<svg width="12" height="14" viewBox="0 0 12 14" fill="none" xmlns="http://www.w3.org/2000/svg">
<path d="M2.69938 11.4C2.75192 11.4395 2.81174 11.4682 2.87541 11.4846C2.93908 11.5009 3.00535 11.5046 3.07042 11.4953C3.1355 11.486 3.1981 11.464 3.25466 11.4305C3.31121 11.3969 3.3606 11.3526 3.4 11.3C3.70273 10.8964 4.09528 10.5688 4.54656 10.3431C4.99784 10.1175 5.49545 10 6 10C6.50455 10 7.00216 10.1175 7.45344 10.3431C7.90472 10.5688 8.29727 10.8964 8.6 11.3C8.6394 11.3525 8.68875 11.3968 8.74525 11.4302C8.80175 11.4637 8.86429 11.4857 8.92929 11.495C8.99429 11.5043 9.06048 11.5007 9.12409 11.4844C9.1877 11.4681 9.24747 11.4394 9.3 11.4C9.35253 11.3606 9.39678 11.3112 9.43024 11.2547C9.46369 11.1982 9.48569 11.1357 9.49498 11.0707C9.50426 11.0057 9.50065 10.9395 9.48436 10.8759C9.46806 10.8123 9.4394 10.7525 9.4 10.7C8.95726 10.1064 8.36686 9.63905 7.6875 9.34437C8.0598 9.00446 8.32065 8.55993 8.43579 8.06912C8.55094 7.57831 8.51501 7.06416 8.33272 6.59414C8.15043 6.12412 7.83029 5.72019 7.41433 5.43536C6.99837 5.15053 6.50601 4.99812 6.00187 4.99812C5.49774 4.99812 5.00538 5.15053 4.58942 5.43536C4.17346 5.72019 3.85332 6.12412 3.67103 6.59414C3.48874 7.06416 3.45281 7.57831 3.56796 8.06912C3.6831 8.55993 3.94394 9.00446 4.31625 9.34437C3.63552 9.63849 3.04378 10.1059 2.6 10.7C2.52037 10.806 2.4861 10.9393 2.50474 11.0706C2.52337 11.2018 2.59339 11.3203 2.69938 11.4ZM6 6C6.29667 6 6.58668 6.08797 6.83335 6.2528C7.08003 6.41762 7.27229 6.65189 7.38582 6.92597C7.49935 7.20006 7.52906 7.50166 7.47118 7.79264C7.4133 8.08361 7.27044 8.35088 7.06066 8.56066C6.85088 8.77044 6.58361 8.9133 6.29264 8.97118C6.00166 9.02906 5.70006 8.99935 5.42597 8.88582C5.15189 8.77229 4.91762 8.58003 4.7528 8.33335C4.58797 8.08668 4.5 7.79667 4.5 7.5C4.5 7.10218 4.65804 6.72064 4.93934 6.43934C5.22064 6.15804 5.60218 6 6 6ZM10.5 0.5H1.5C1.23478 0.5 0.98043 0.605357 0.792893 0.792893C0.605357 0.98043 0.5 1.23478 0.5 1.5V12.5C0.5 12.7652 0.605357 13.0196 0.792893 13.2071C0.98043 13.3946 1.23478 13.5 1.5 13.5H10.5C10.7652 13.5 11.0196 13.3946 11.2071 13.2071C11.3946 13.0196 11.5 12.7652 11.5 12.5V1.5C11.5 1.23478 11.3946 0.98043 11.2071 0.792893C11.0196 0.605357 10.7652 0.5 10.5 0.5ZM10.5 12.5H1.5V1.5H10.5V12.5ZM3.5 3C3.5 2.86739 3.55268 2.74021 3.64645 2.64645C3.74021 2.55268 3.86739 2.5 4 2.5H8C8.13261 2.5 8.25979 2.55268 8.35355 2.64645C8.44732 2.74021 8.5 2.86739 8.5 3C8.5 3.13261 8.44732 3.25979 8.35355 3.35355C8.25979 3.44732 8.13261 3.5 8 3.5H4C3.86739 3.5 3.74021 3.44732 3.64645 3.35355C3.55268 3.25979 3.5 3.13261 3.5 3Z" fill="black"/>
</svg>
