<svg width="40" height="40" viewBox="0 0 40 40" fill="none" xmlns="http://www.w3.org/2000/svg">
<path d="M24 22.6562L25.3438 24V24.6562H14.6562V24L16 22.6562V19.3438C16 18.3021 16.2604 17.3958 16.7812 16.625C17.3229 15.8542 18.0625 15.3542 19 15.125V14.6562C19 14.3854 19.0938 14.1562 19.2812 13.9688C19.4688 13.7604 19.7083 13.6562 20 13.6562C20.2917 13.6562 20.5312 13.7604 20.7188 13.9688C20.9062 14.1562 21 14.3854 21 14.6562V15.125C21.9375 15.3542 22.6667 15.8542 23.1875 16.625C23.7292 17.3958 24 18.3021 24 19.3438V22.6562ZM20 26.6562C19.625 26.6562 19.3021 26.5312 19.0312 26.2812C18.7812 26.0312 18.6562 25.7188 18.6562 25.3438H21.3438C21.3438 25.6979 21.2083 26.0104 20.9375 26.2812C20.6667 26.5312 20.3542 26.6562 20 26.6562Z" fill="black"/>
<circle cx="24" cy="14" r="3.5" fill="#81DE4A" stroke="white"/>
</svg>
